<svg width="90" height="63" viewBox="0 0 90 63" fill="none" xmlns="http://www.w3.org/2000/svg">
<path fill-rule="evenodd" clip-rule="evenodd" d="M35.9593 7.91837C35.962 7.98765 35.886 7.99988 35.8535 7.92244C34.5079 5.22159 35.8114 3.34947 38.4347 2.23272C39.0979 1.94198 40.514 1.30345 40.9738 0.716547C41.0213 0.64726 41.0986 0.651336 41.119 0.717906C41.4296 1.78982 41.5869 2.86446 41.6453 3.94181C41.7782 7.59638 37.6181 9.38427 37.0335 8.30013C36.7039 7.65208 36.6646 6.92796 36.8463 6.14678C37.0661 5.37511 37.4242 4.80315 37.903 4.4078C38.3709 4.00023 38.9081 3.62798 39.6812 3.37936C38.7141 3.51658 37.8338 3.85622 37.0539 4.42954C35.9525 5.35201 35.8711 6.5856 35.9593 7.91837Z" fill="#577A38"/>
<path fill-rule="evenodd" clip-rule="evenodd" d="M34.5649 7.81654C34.5676 7.86002 34.6151 7.86137 34.63 7.81247C35.2892 6.06669 34.3696 4.99749 32.6849 4.47444C32.259 4.33722 31.3475 4.0329 31.0274 3.70141C30.9935 3.66201 30.9461 3.6688 30.9379 3.71092C30.8131 4.39021 30.7846 5.06135 30.8158 5.72705C30.9637 7.98365 33.6344 8.82189 33.926 8.11814C34.0888 7.69834 34.0671 7.25137 33.9071 6.78131C33.7239 6.32075 33.4676 5.99061 33.1475 5.77867C32.8342 5.55723 32.4801 5.36295 31.9891 5.25834C32.5927 5.28144 33.1556 5.43631 33.671 5.73928C34.4076 6.23787 34.5351 6.99188 34.5649 7.81654Z" fill="#577A38"/>
<path opacity="0.9" d="M46.5432 28.1721V14.907L35.2227 8.83008L24.1248 14.907V28.1721H46.5432Z" fill="url(#paint0_linear_22_121)"/>
<path opacity="0.9" d="M57.0606 28.1722V20.8278L48.6551 16.3159L40.4136 20.8278V28.1722H57.0606Z" fill="url(#paint1_linear_22_121)"/>
<path opacity="0.9" d="M63.4682 28.1721V24.3667L58.7751 21.8479L54.1755 24.3667V28.1721H63.4682Z" fill="url(#paint2_linear_22_121)"/>
<path d="M88.4312 27.4561H0.425903V30.6243H88.4312V27.4561Z" fill="#577A38"/>
<path d="M0 36.0627H7.50355V37.6129H4.52898V46.9069H2.97321V37.6129H0V36.0627Z" fill="#1B1C1B"/>
<path d="M13.5218 45.3568H19.117V46.9069H11.9661V36.0627H18.9786V37.6129H13.5218V40.4795H17.8447V42.0296H13.5218V45.3568Z" fill="#1B1C1B"/>
<path d="M32.0026 36.0627V46.9069H30.4468V37.6129H25.5571V46.9069H24.0013V36.0627H32.0026Z" fill="#1B1C1B"/>
<path d="M45.3794 36.0626V46.9068H43.8236V37.6128H40.2143V39.3137C40.2143 40.872 40.1451 42.1749 40.0067 43.2237C39.8684 44.2725 39.6595 45.0686 39.3814 45.6134C39.102 46.1582 38.7955 46.5345 38.4618 46.7438C38.1281 46.953 37.7212 47.0576 37.2411 47.0576C37.0702 47.0576 36.8911 47.0372 36.7012 46.9965C36.5127 46.9557 36.3648 46.9163 36.259 46.8756L36.1071 46.8307V45.2045C36.3879 45.305 36.647 45.3553 36.8816 45.3553C37.1542 45.3553 37.3875 45.2806 37.5829 45.1325C37.7782 44.9844 37.964 44.7045 38.139 44.297C38.314 43.888 38.4428 43.2685 38.5269 42.4371C38.6097 41.6056 38.6517 40.5636 38.6517 39.3137V36.0613H45.3794V36.0626Z" fill="#1B1C1B"/>
<path d="M59.399 46.9068H57.8432V39.0882L52.3173 46.9081H50.9758V36.064H52.5316V43.8907L58.0575 36.064H59.399V46.9068Z" fill="#1B1C1B"/>
<path d="M64.9968 46.9069V36.0627H66.5526V45.3568H71.2973V36.0627H72.853V45.3568H74.0629V49.2287H72.499V46.9069H64.9968Z" fill="#1B1C1B"/>
<path d="M82.4807 46.9069H78.657V36.0627H80.2128V39.9347H82.4807C83.4261 39.9347 84.2169 40.2743 84.853 40.9523C85.4892 41.6302 85.8079 42.4549 85.8079 43.4249C85.8079 44.3949 85.4892 45.2182 84.853 45.8934C84.2169 46.57 83.4261 46.9069 82.4807 46.9069ZM80.2128 45.3568H82.4807C82.969 45.3568 83.3868 45.172 83.7327 44.8011C84.0785 44.4302 84.2508 43.9724 84.2508 43.4249C84.2508 42.8774 84.0785 42.4182 83.7327 42.0446C83.3868 41.671 82.969 41.4848 82.4807 41.4848H80.2128V45.3568ZM88.6428 36.0627V46.9069H87.0802V36.0627H88.6428Z" fill="#1B1C1B"/>
<path d="M1.13391 51.4146H5.09592C6.04133 51.4146 6.8321 51.7542 7.47096 52.4321C8.10982 53.1101 8.42857 53.9347 8.42857 54.9047C8.42857 55.8748 8.10982 56.6981 7.47096 57.3733C6.8321 58.0485 6.03997 58.3868 5.09592 58.3868H2.68969V62.2587H1.13391V51.4146ZM5.09728 52.9647H2.68969V56.8366H5.09592C5.58423 56.8366 6.00199 56.6519 6.34787 56.281C6.69375 55.9101 6.86601 55.4522 6.86601 54.9047C6.86601 54.3572 6.69375 53.898 6.34787 53.5244C6.00199 53.1522 5.58558 52.9647 5.09728 52.9647Z" fill="#1B1C1B"/>
<path d="M13.3523 60.7086H18.9474V62.2587H11.7965V51.4146H18.809V52.9647H13.3523V55.8313H17.6751V57.3814H13.3523V60.7086Z" fill="#1B1C1B"/>
<path d="M22.1743 62.2587V51.4146H28.5439V52.9647H23.7314V62.2587H22.1743Z" fill="#1B1C1B"/>
<path d="M39.6269 62.2588H38.0711V54.4402L32.5452 62.2602H31.2037V51.416H32.7595V59.2428L38.2854 51.416H39.6269V62.2588Z" fill="#1B1C1B"/>
<path d="M44.5072 60.7928C43.5021 59.7141 43.0002 58.395 43.0002 56.838C43.0002 55.2811 43.5021 53.9619 44.5072 52.8832C45.5123 51.8045 46.7561 51.2651 48.2386 51.2651C49.7212 51.2651 50.965 51.8045 51.97 52.8832C52.9751 53.9619 53.477 55.2811 53.477 56.838C53.477 58.395 52.9738 59.7141 51.97 60.7928C50.965 61.8715 49.7212 62.4109 48.2386 62.4109C46.7561 62.4109 45.5123 61.8715 44.5072 60.7928ZM45.6235 53.9823C44.9114 54.7608 44.5547 55.7131 44.5547 56.8367C44.5547 57.9616 44.9114 58.9139 45.6235 59.6951C46.3356 60.4763 47.2078 60.8676 48.2373 60.8676C49.2681 60.8676 50.1389 60.4763 50.851 59.6951C51.5631 58.9139 51.9199 57.9602 51.9199 56.8367C51.9199 55.7131 51.5631 54.7608 50.851 53.9823C50.1389 53.2038 49.2668 52.8139 48.2373 52.8139C47.2078 52.8139 46.337 53.2038 45.6235 53.9823Z" fill="#1B1C1B"/>
<path d="M64.8503 51.4146V62.2587H63.2946V57.5322H58.4048V62.2587H56.849V51.4146H58.4048V55.9902H63.2946V51.4146H64.8503Z" fill="#1B1C1B"/>
<path d="M69.7239 60.7928C68.7188 59.7141 68.2169 58.395 68.2169 56.838C68.2169 55.2811 68.7188 53.9619 69.7239 52.8832C70.7289 51.8045 71.9728 51.2651 73.4553 51.2651C74.9378 51.2651 76.1816 51.8045 77.1867 52.8832C78.1918 53.9619 78.6937 55.2811 78.6937 56.838C78.6937 58.395 78.1904 59.7141 77.1867 60.7928C76.1816 61.8715 74.9378 62.4109 73.4553 62.4109C71.9728 62.4109 70.7289 61.8715 69.7239 60.7928ZM70.8415 53.9823C70.1294 54.7608 69.7727 55.7131 69.7727 56.8367C69.7727 57.9616 70.1294 58.9139 70.8415 59.6951C71.5536 60.4763 72.4258 60.8676 73.4553 60.8676C74.4848 60.8676 75.357 60.4763 76.0691 59.6951C76.7812 58.9139 77.1379 57.9602 77.1379 56.8367C77.1379 55.7131 76.7812 54.7608 76.0691 53.9823C75.357 53.2038 74.4861 52.8139 73.4553 52.8139C72.4244 52.8139 71.5536 53.2038 70.8415 53.9823Z" fill="#1B1C1B"/>
<path d="M86.3125 62.2587H82.067V51.4146H86.0982C86.8998 51.4146 87.5848 51.7039 88.1518 52.284C88.7188 52.8642 89.0022 53.5299 89.0022 54.2811C89.0022 54.7145 88.9209 55.1126 88.7567 55.4753C88.5926 55.8381 88.4298 56.0908 88.2698 56.2321L88.0134 56.4508C88.0501 56.4712 88.1016 56.5051 88.1694 56.5527C88.2359 56.6002 88.3566 56.7035 88.5329 56.8624C88.7079 57.0214 88.8585 57.1967 88.986 57.3882C89.1121 57.5798 89.2301 57.8284 89.3386 58.1327C89.4471 58.4384 89.5014 58.7536 89.5014 59.0824C89.5014 59.9491 89.1976 60.6964 88.5885 61.3213C87.9795 61.9462 87.2199 62.2587 86.3125 62.2587ZM86.0982 52.89H83.6228V55.8313H86.0982C86.4861 55.8313 86.8076 55.6914 87.0626 55.4115C87.319 55.1316 87.4465 54.7811 87.4465 54.3599C87.4465 53.9388 87.319 53.5883 87.0626 53.3084C86.8062 53.0299 86.4848 52.89 86.0982 52.89ZM83.6228 60.7847H86.3125C86.7737 60.7847 87.1603 60.6148 87.4749 60.2738C87.7883 59.9328 87.9456 59.5117 87.9456 59.0076C87.9456 58.5036 87.7896 58.0797 87.479 57.7374C87.1684 57.395 86.7791 57.2225 86.3139 57.2225H83.6242V60.7847H83.6228Z" fill="#1B1C1B"/>
<defs>
<linearGradient id="paint0_linear_22_121" x1="24.2412" y1="15.8513" x2="61.2285" y2="33.8342" gradientUnits="userSpaceOnUse">
<stop stop-color="#E7B436"/>
<stop offset="0.4524" stop-color="#CC5C21"/>
<stop offset="1" stop-color="#C1001F"/>
</linearGradient>
<linearGradient id="paint1_linear_22_121" x1="24.1806" y1="15.6504" x2="63.3119" y2="28.2852" gradientUnits="userSpaceOnUse">
<stop stop-color="#DC9327"/>
<stop offset="0.4524" stop-color="#CC5C21"/>
<stop offset="1" stop-color="#C1002C"/>
</linearGradient>
<linearGradient id="paint2_linear_22_121" x1="24.5025" y1="14.6532" x2="63.634" y2="27.288" gradientUnits="userSpaceOnUse">
<stop stop-color="#DC9327"/>
<stop offset="0.4524" stop-color="#CC5C21"/>
<stop offset="1" stop-color="#C1002E"/>
</linearGradient>
</defs>
</svg>
