<svg width="92" height="63" viewBox="0 0 92 63" fill="none" xmlns="http://www.w3.org/2000/svg">
<path fill-rule="evenodd" clip-rule="evenodd" d="M36.7583 8.03324C36.761 8.10353 36.6834 8.11593 36.6501 8.03737C35.2747 5.29738 36.6071 3.39812 39.2887 2.26519C39.9667 1.97024 41.4142 1.32245 41.8843 0.727042C41.9328 0.65675 42.0118 0.660885 42.0326 0.72842C42.3502 1.81587 42.511 2.90608 42.5706 3.99905C42.7065 7.70659 38.454 9.52039 37.8564 8.42053C37.5195 7.76309 37.4793 7.02848 37.6651 6.23598C37.8897 5.45312 38.2557 4.87287 38.7452 4.47179C39.2235 4.05831 39.7726 3.68067 40.5629 3.42844C39.5743 3.56765 38.6745 3.91222 37.8772 4.49385C36.7513 5.42969 36.6681 6.68116 36.7583 8.03324Z" fill="white"/>
<path fill-rule="evenodd" clip-rule="evenodd" d="M35.3329 7.92978C35.3357 7.97389 35.3842 7.97527 35.3995 7.92565C36.0733 6.15457 35.1333 5.06988 33.4112 4.53925C32.9758 4.40004 32.0441 4.09131 31.7168 3.75501C31.6822 3.71504 31.6337 3.72193 31.6253 3.76466C31.4978 4.45379 31.4687 5.13466 31.5006 5.81001C31.6517 8.09931 34.3818 8.9497 34.6799 8.23576C34.8463 7.80987 34.8241 7.35642 34.6605 6.87954C34.4733 6.41231 34.2112 6.07739 33.884 5.86238C33.5637 5.63772 33.2018 5.44063 32.6999 5.33451C33.3169 5.35794 33.8923 5.51506 34.4192 5.82241C35.1721 6.32824 35.3024 7.09317 35.3329 7.92978Z" fill="white"/>
<path d="M36.0054 10.1985L47.576 16.3635V29.8209H24.6608V16.3635L36.0054 10.1985ZM35.9999 8.78857L35.4078 9.11109L24.0632 15.2761L23.4143 15.6289V16.3649V29.8223V31.0627H24.6622H47.5774H48.8253V29.8223V16.3649V15.622L48.1667 15.2719L36.5961 9.10695L35.9999 8.78857Z" fill="white"/>
<path d="M49.7362 17.7927L58.3286 22.3699V29.8208H41.3117V22.3699L49.7362 17.7927ZM49.7307 16.3813L49.1386 16.7039L40.7141 21.2811L40.0652 21.6339V22.3699V29.8208V31.0613H41.3131H58.33H59.5778V29.8208V22.3699V21.627L58.9192 21.277L50.3269 16.6997L49.7307 16.3813Z" fill="white"/>
<path d="M60.6357 23.4051L65.4317 25.9604V29.8209H55.9326V25.9604L60.6357 23.4051ZM60.6302 21.9951L60.0381 22.3176L55.3364 24.8729L54.6875 25.2258V25.9618V29.8223V31.0627H55.9354H65.4345H66.6824V29.8223V25.9618V25.2189L66.0238 24.8688L61.2278 22.3135L60.6302 21.9951Z" fill="white"/>
<path d="M90.3964 27.854H0.435425V31.0681H90.3964V27.854Z" fill="white"/>
<path d="M0 36.5854H7.67029V38.1581H4.62963V47.5868H3.03928V38.1581H0V36.5854Z" fill="white"/>
<path d="M13.8223 46.0142H19.5417V47.5868H12.2319V36.5854H19.4003V38.1581H13.8223V41.0662H18.2412V42.6388H13.8223V46.0142Z" fill="white"/>
<path d="M32.7138 36.5854V47.5868H31.1235V38.1581H26.125V47.5868H24.5347V36.5854H32.7138Z" fill="white"/>
<path d="M46.3877 36.5854V47.5867H44.7974V38.158H41.1078V39.8836C41.1078 41.4644 41.0371 42.7862 40.8957 43.8502C40.7543 44.9142 40.5407 45.7219 40.2565 46.2746C39.9709 46.8273 39.6575 47.209 39.3164 47.4213C38.9754 47.6336 38.5594 47.7397 38.0686 47.7397C37.8939 47.7397 37.7108 47.719 37.5167 47.6777C37.324 47.6363 37.1729 47.5963 37.0647 47.555L36.9094 47.5095V45.8597C37.1964 45.9617 37.4613 46.0127 37.7011 46.0127C37.9798 46.0127 38.2183 45.9369 38.418 45.7867C38.6176 45.6364 38.8076 45.3525 38.9864 44.939C39.1653 44.5242 39.297 43.8957 39.3816 43.0522C39.4662 42.2087 39.5092 41.1516 39.5092 39.8836V36.584H46.3877V36.5854Z" fill="white"/>
<path d="M60.719 47.5866H59.1287V39.6547L53.4799 47.588H52.1086V36.5867H53.699V44.5269L59.3477 36.5867H60.719V47.5866Z" fill="white"/>
<path d="M66.4412 47.5868V36.5854H68.0315V46.0142H72.8816V36.5854H74.472V46.0142H75.7087V49.9422H74.1101V47.5868H66.4412Z" fill="white"/>
<path d="M84.3135 47.5868H80.4049V36.5854H81.9953V40.5135H84.3135C85.28 40.5135 86.0883 40.8581 86.7386 41.5458C87.3889 42.2336 87.7147 43.0702 87.7147 44.0543C87.7147 45.0384 87.3889 45.8736 86.7386 46.5586C86.0883 47.245 85.28 47.5868 84.3135 47.5868ZM81.9953 46.0142H84.3135C84.8127 46.0142 85.2397 45.8267 85.5933 45.4505C85.9469 45.0742 86.123 44.6097 86.123 44.0543C86.123 43.4988 85.9469 43.033 85.5933 42.654C85.2397 42.2749 84.8127 42.0861 84.3135 42.0861H81.9953V46.0142ZM90.6125 36.5854V47.5868H89.0153V36.5854H90.6125Z" fill="white"/>
<path d="M1.15918 52.1597H5.20924C6.17565 52.1597 6.984 52.5042 7.63706 53.192C8.29011 53.8797 8.61595 54.7164 8.61595 55.7004C8.61595 56.6845 8.29011 57.5198 7.63706 58.2047C6.984 58.8897 6.17426 59.2329 5.20924 59.2329H2.74953V63.161H1.15918V52.1597ZM5.21063 53.7323H2.74953V57.6603H5.20924C5.70839 57.6603 6.13544 57.4729 6.48901 57.0966C6.84257 56.7204 7.01866 56.2559 7.01866 55.7004C7.01866 55.145 6.84257 54.6791 6.48901 54.3001C6.13544 53.9225 5.70978 53.7323 5.21063 53.7323Z" fill="white"/>
<path d="M13.6491 61.5884H19.3685V63.161H12.0587V52.1597H19.2271V53.7323H13.6491V56.6404H18.0679V58.213H13.6491V61.5884Z" fill="white"/>
<path d="M22.667 63.161V52.1597H29.1781V53.7323H24.2587V63.161H22.667Z" fill="white"/>
<path d="M40.5076 63.1611H38.9172V55.2292L33.2685 63.1625H31.8972V52.1611H33.4876V60.1013L39.1363 52.1611H40.5076V63.1611Z" fill="white"/>
<path d="M45.4962 61.6738C44.4688 60.5795 43.9558 59.2412 43.9558 57.6617C43.9558 56.0808 44.4688 54.7439 45.4962 53.6496C46.5237 52.5552 47.7951 52.0081 49.3106 52.0081C50.8261 52.0081 52.0975 52.5552 53.1249 53.6496C54.1524 54.7439 54.6654 56.0822 54.6654 57.6617C54.6654 59.2426 54.151 60.5795 53.1249 61.6738C52.0975 62.7682 50.8261 63.3154 49.3106 63.3154C47.7951 63.3154 46.5237 62.7682 45.4962 61.6738ZM46.6374 54.7646C45.9094 55.5543 45.5448 56.5205 45.5448 57.6603C45.5448 58.8015 45.9094 59.7677 46.6374 60.5602C47.3653 61.3527 48.2568 61.7496 49.3092 61.7496C50.363 61.7496 51.2531 61.3527 51.9811 60.5602C52.709 59.7677 53.0736 58.8002 53.0736 57.6603C53.0736 56.5205 52.709 55.5543 51.9811 54.7646C51.2531 53.9748 50.3616 53.5793 49.3092 53.5793C48.2568 53.5793 47.3667 53.9748 46.6374 54.7646Z" fill="white"/>
<path d="M66.2915 52.1597V63.161H64.7011V58.366H59.7027V63.161H58.1123V52.1597H59.7027V56.8017H64.7011V52.1597H66.2915Z" fill="white"/>
<path d="M71.2732 61.6738C70.2458 60.5795 69.7328 59.2412 69.7328 57.6617C69.7328 56.0808 70.2458 54.7439 71.2732 53.6496C72.3006 52.5552 73.5721 52.0081 75.0876 52.0081C76.603 52.0081 77.8745 52.5552 78.9019 53.6496C79.9293 54.7439 80.4424 56.0822 80.4424 57.6617C80.4424 59.2426 79.928 60.5795 78.9019 61.6738C77.8745 62.7682 76.603 63.3154 75.0876 63.3154C73.5721 63.3154 72.3006 62.7682 71.2732 61.6738ZM72.4157 54.7646C71.6878 55.5543 71.3231 56.5205 71.3231 57.6603C71.3231 58.8015 71.6878 59.7677 72.4157 60.5602C73.1437 61.3527 74.0352 61.7496 75.0876 61.7496C76.1413 61.7496 77.0315 61.3527 77.7594 60.5602C78.4873 59.7677 78.852 58.8002 78.852 57.6603C78.852 56.5205 78.4873 55.5543 77.7594 54.7646C77.0315 53.9748 76.1413 53.5793 75.0876 53.5793C74.0338 53.5793 73.1437 53.9748 72.4157 54.7646Z" fill="white"/>
<path d="M88.2306 63.161H83.8907V52.1597H88.0115C88.831 52.1597 89.5312 52.4532 90.1107 53.0418C90.6903 53.6303 90.9801 54.3056 90.9801 55.0678C90.9801 55.5075 90.8969 55.9113 90.7291 56.2793C90.5614 56.6473 90.395 56.9037 90.2314 57.047L89.9693 57.2689C90.0067 57.2896 90.0594 57.324 90.1288 57.3723C90.1967 57.4205 90.3201 57.5253 90.5003 57.6865C90.6792 57.8478 90.8331 58.0256 90.9634 58.2199C91.0924 58.4142 91.213 58.6665 91.3239 58.9752C91.4349 59.2853 91.4903 59.6051 91.4903 59.9386C91.4903 60.8179 91.1797 61.576 90.5572 62.21C89.9346 62.844 89.1582 63.161 88.2306 63.161ZM88.0115 53.6565H85.4811V56.6404H88.0115C88.4081 56.6404 88.7367 56.4985 88.9973 56.2145C89.2594 55.9306 89.3897 55.575 89.3897 55.1477C89.3897 54.7205 89.2594 54.3649 88.9973 54.081C88.7353 53.7984 88.4067 53.6565 88.0115 53.6565ZM85.4811 61.6656H88.2306C88.702 61.6656 89.0972 61.4933 89.4188 61.1473C89.7391 60.8014 89.9 60.3741 89.9 59.8628C89.9 59.3515 89.7405 58.9214 89.423 58.5741C89.1055 58.2268 88.7076 58.0518 88.232 58.0518H85.4825V61.6656H85.4811Z" fill="white"/>
</svg>
