<svg width="410" height="300" viewBox="0 0 410 300" fill="none" xmlns="http://www.w3.org/2000/svg">
<path fill-rule="evenodd" clip-rule="evenodd" d="M215.104 273.736C215.001 276.351 217.873 276.813 219.104 273.89C269.974 171.944 220.693 101.28 121.517 59.1272C96.4407 48.1531 42.9039 24.0513 25.5198 1.89815C23.725 -0.717158 20.8019 -0.563317 20.0327 1.94943C8.28949 42.4097 2.34093 82.9726 0.135864 123.638C-4.88962 261.583 152.388 329.068 174.49 288.146C186.951 263.685 188.438 236.353 181.566 206.866C173.259 177.739 159.721 156.15 141.619 141.227C123.927 125.843 103.62 111.792 74.3901 102.408C110.953 107.587 144.234 120.407 173.72 142.048C215.36 176.867 218.437 223.43 215.104 273.736Z" fill="#F9F9F9"/>
<path fill-rule="evenodd" clip-rule="evenodd" d="M267.82 269.89C267.718 271.531 265.923 271.582 265.359 269.736C240.437 203.84 275.205 163.483 338.895 143.74C354.997 138.56 389.458 127.073 401.56 114.561C402.842 113.074 404.637 113.33 404.945 114.92C409.662 140.56 410.739 165.893 409.56 191.02C403.97 276.197 302.999 307.837 291.974 281.274C285.82 265.428 286.64 248.557 292.692 230.814C299.614 213.43 309.306 200.969 321.409 192.969C333.254 184.61 346.639 177.277 365.202 173.328C342.382 174.2 321.101 180.046 301.614 191.482C273.769 210.302 268.949 238.762 267.82 269.89Z" fill="#F9F9F9"/>
</svg>
