<svg width="334" height="67" viewBox="0 0 334 67" fill="none" xmlns="http://www.w3.org/2000/svg">
<path d="M175.175 2.20721C176.106 2.04691 177.9 1.90667 179.62 1.90667C181.887 1.90667 183.153 2.14713 184.222 2.7416C185.244 3.24924 185.965 4.12758 185.965 5.3733C185.965 6.61901 185.06 7.80461 183.333 8.33228L183.333 8.39237C184.9 8.71966 186.533 9.82178 186.533 11.7788C186.533 13.0446 185.872 14.0031 184.943 14.6777C183.791 15.4926 181.911 15.9201 178.915 15.9201C177.215 15.9201 175.946 15.8166 175.171 15.7397L175.171 2.21056L175.175 2.20721ZM178.077 7.61423L179.76 7.61423C181.911 7.61423 183.019 6.81602 183.019 5.67718C183.019 4.32794 181.774 3.81698 179.914 3.81698C178.938 3.81698 178.414 3.88711 178.077 3.94389L178.077 7.61758L178.077 7.61423ZM178.077 13.8762C178.487 13.9564 179.032 13.9564 179.777 13.9564C181.684 13.9564 183.45 13.4287 183.45 11.6954C183.45 10.1057 181.774 9.49115 179.686 9.49115L178.077 9.49115L178.077 13.8762Z" fill="#030303"/>
<path d="M195.275 2.02629L195.275 7.20285C195.275 9.28684 195.252 11.284 195.115 13.1409L195.185 13.1609C196.09 11.5478 197.152 9.93808 198.291 8.28492L202.87 2.02964L205.882 2.02964L205.882 15.7759L203.16 15.7759L203.16 10.5726C203.16 8.61554 203.184 6.89895 203.387 5.08214L203.321 5.06543C202.502 6.67851 201.37 8.42852 200.258 9.98482L195.953 15.7759L192.547 15.7759L192.547 2.02964L195.272 2.02964L195.275 2.02629Z" fill="#030303"/>
<path d="M215.323 4.16407L210.424 4.16407L210.424 2.0233L223.188 2.0233L223.188 4.16407L218.245 4.16407L218.245 15.7729L215.323 15.7729L215.323 4.16407Z" fill="#030303"/>
<path d="M229.838 11.7749L228.365 15.7759L225.309 15.7759L230.703 2.02964L234.513 2.02964L240.067 15.7759L236.868 15.7759L235.282 11.7749L229.838 11.7749ZM234.764 9.81784L233.378 6.34787C233.041 5.52964 232.763 4.69804 232.516 3.96331L232.476 3.96331C232.226 4.71474 231.999 5.52964 231.701 6.34787L230.342 9.81784L234.767 9.81784L234.764 9.81784Z" fill="#030303"/>
<path d="M259.363 10.062C259.273 8.2051 259.182 5.98086 259.182 3.98037L259.112 3.98037C258.548 5.73372 257.82 7.65406 257.075 9.53432L254.6 15.6126L252.286 15.6126L250.095 9.59111C249.434 7.71419 248.843 5.7738 248.392 3.98037L248.348 3.98037C248.278 5.85395 248.188 8.2051 248.051 10.1421L247.69 15.7729L244.922 15.7729L245.95 2.02665L249.988 2.02665L252.139 7.53049C252.73 9.09682 253.248 10.7967 253.638 12.323L253.702 12.323C254.156 10.8368 254.747 9.07676 255.402 7.51043L257.736 2.02665L261.711 2.02665L262.569 15.7729L259.663 15.7729L259.373 10.062L259.363 10.062Z" fill="#030303"/>
<path d="M271.731 2.02629L271.731 7.20285C271.731 9.28684 271.704 11.284 271.571 13.1409L271.638 13.1609C272.543 11.5478 273.608 9.93808 274.74 8.28492L279.326 2.02964L282.335 2.02964L282.335 15.7759L279.616 15.7759L279.616 10.5726C279.616 8.61554 279.639 6.89895 279.843 5.08214L279.776 5.06543C278.958 6.67851 277.826 8.42852 276.711 9.98482L272.406 15.7759L269.002 15.7759L269.002 2.02964L271.731 2.02964L271.731 2.02629Z" fill="#030303"/>
<path d="M292.821 2.02665L292.821 7.47036L300.212 7.47036L300.212 2.02665L303.134 2.02665L303.134 15.7729L300.212 15.7729L300.212 9.71468L292.821 9.71468L292.821 15.7729L289.899 15.7729L289.899 2.02665L292.821 2.02665Z" fill="#030303"/>
<path d="M313.237 2.02652L313.237 6.85907C313.712 6.79228 314.597 6.73551 315.208 6.73551C318.497 6.73551 321.65 7.97788 321.65 11.2441C321.65 12.5099 321.169 13.445 320.451 14.1363C318.928 15.5256 316.3 15.9164 314.079 15.9164C312.379 15.9164 311.11 15.8128 310.335 15.736L310.335 2.02652L313.237 2.02652ZM313.214 13.8524C313.601 13.9326 314.146 13.956 314.824 13.956C316.727 13.956 318.588 13.1611 318.588 11.2842C318.588 9.40728 316.524 8.73599 314.8 8.73599C314.122 8.73599 313.555 8.79945 313.214 8.81949L313.214 13.8558L313.214 13.8524ZM326.209 15.7728L323.28 15.7728L323.28 2.02652L326.209 2.02652L326.209 15.7728Z" fill="#030303"/>
<path d="M201.365 66.5438C193.463 66.5438 189.863 61.1001 189.863 56.0438C189.863 53.1583 189.853 48.8166 189.84 44.9025C189.83 41.6897 189.823 38.7641 189.823 37.1677C189.823 33.8246 187.783 30.2512 182.058 30.2512L181.754 30.2512L181.774 30.5517C182.923 48.8801 181.521 58.7122 177.085 63.4346C175.118 65.5286 172.567 66.5438 169.281 66.5438C162.942 66.5438 159.699 62.4226 158.851 58.8926L158.717 58.3382L158.356 58.7756C155.521 62.2155 150.328 66.3535 141.681 66.5104C141.451 66.5138 141.224 66.5171 140.996 66.5171C123.92 66.5171 116.276 54.8214 116.276 43.2326C116.276 35.4077 118.928 29.0221 123.947 24.764C128.536 20.8732 134.915 18.816 142.396 18.816C149.877 18.816 155.157 20.763 158.764 24.6003C162.414 28.4844 162.698 32.7793 162.698 34.005C162.698 44.0976 151.927 47.6778 142.7 47.6778C139.56 47.6778 136.611 47.2637 134.394 46.5156L133.906 46.3519L134.026 46.8529C135.753 54.0834 143.034 55.1621 147.222 55.1621C152.926 55.1621 156.489 52.497 158.847 50.7336C159.976 49.8887 160.871 49.2207 161.512 49.2207C161.653 49.2207 161.78 49.2541 161.9 49.3176L161.916 49.3343L161.987 49.3677C162.007 49.3744 162.02 49.381 162.037 49.3877C163.052 49.9254 164.051 50.1993 165.002 50.1993C166.555 50.1993 167.981 49.4946 169.244 48.1053C172.757 44.2412 174.08 36.1357 173.539 30.4682L173.515 30.2111L173.258 30.2111C172.807 30.2111 172.27 30.2478 171.702 30.2846C171.051 30.328 170.376 30.3747 169.735 30.3747C167.45 30.3747 167.156 29.7535 167.156 29.2125C167.156 27.1185 169.885 24.44 174.273 22.2258C179.066 19.8079 184.854 18.4252 190.15 18.4252C201.202 18.4252 207.797 23.9959 207.797 33.327C207.797 36.5599 207.784 40.3404 207.771 43.6033C207.761 46.0747 207.754 48.2455 207.754 49.6549C207.754 54.0967 209.474 55.3825 210.857 56.4145C211.471 56.8754 212.002 57.2728 212.326 57.8773C212.57 58.4517 212.182 59.674 211.328 60.9699C209.631 63.5414 206.007 66.5438 201.365 66.5438ZM141.15 27.7931C135.593 27.7931 133.622 33.9081 133.622 39.1448L133.622 39.4053L133.883 39.4253C134.487 39.4754 135.082 39.5022 135.656 39.5022C138.882 39.5022 141.584 38.6939 143.471 37.161C145.078 35.8585 145.999 34.0852 145.999 32.2984C145.999 29.6433 144.006 27.7898 141.15 27.7898L141.15 27.7931Z" fill="#030303"/>
<path d="M102.337 66.9707C95.838 66.9707 91.1223 62.6725 91.1223 56.7478L91.1223 36.0215C91.1223 31.0788 88.8981 30.3407 87.5722 30.3407C84.9672 30.3407 81.3303 33.9042 81.3303 39.7119C81.3303 41.0078 81.2935 46.9558 81.2568 52.7135C81.2234 58.2541 81.1867 63.5007 81.1867 64.9635C79.9543 65.6315 76.8717 66.0289 72.8541 66.0289C68.8364 66.0289 65.1093 65.6448 63.3092 65.0637C63.3092 61.0795 63.406 52.5365 63.4828 45.65C63.5396 40.5636 63.5864 36.1685 63.5864 34.7491C63.5864 30.6713 61.823 29.2186 60.5372 28.1599C59.8359 27.5854 59.3316 27.168 59.3316 26.5134C59.3316 24.1789 64.0272 18.4213 71.1107 18.4213C78.1943 18.4213 81.0531 24.6031 81.0531 28.7811L81.6041 28.8812C83.5679 23.6846 89.3723 18.4213 96.6696 18.4213C104.695 18.4213 109.023 24.8569 109.023 30.9118C109.023 32.6318 108.986 36.6428 108.95 40.5235C108.916 44.2874 108.88 48.1781 108.88 49.7946C108.88 54.7073 111.057 56.1935 112.5 57.1787C113.178 57.6396 113.562 57.9201 113.562 58.3108C113.562 60.8824 109.21 66.9707 102.354 66.9707L102.337 66.9707Z" fill="#030303"/>
<path d="M31.6538 66.5773C22.0421 66.5773 13.9433 63.321 8.22907 57.1592C2.92226 51.4383 2.76434e-07 43.4397 3.81573e-07 34.6396C5.05505e-07 24.2664 3.26624 15.4629 9.44472 9.18088C15.2658 3.25956 23.4147 2.78692e-07 32.3919 3.85541e-07L32.4821 3.86615e-07C41.6195 4.95373e-07 47.3171 2.96569 50.4865 5.45044C54.1635 8.33596 56.5715 12.3069 56.9255 16.0674C57.2027 19.0163 56.2909 21.8117 54.3505 23.9424C52.4068 26.0765 49.6916 27.2521 46.6993 27.2521C43.0757 27.2521 39.5723 26.2101 38.1763 24.7172C37.7755 24.2898 37.5885 23.859 37.6152 23.4415C37.6286 23.1042 37.652 22.7301 37.6753 22.326C37.849 19.5173 38.1129 15.2692 35.8919 12.8579C34.8366 11.7124 33.317 11.1112 31.38 11.0712C31.3199 11.0712 31.2597 11.0712 31.1963 11.0712C24.6104 11.0712 20.0116 18.7191 20.0116 29.6701C20.0116 39.3085 25.7392 49.6816 38.3199 49.6816C44.9292 49.6816 48.7231 48.3792 55.8033 45.4035C56.0905 45.2799 56.3544 45.2198 56.5881 45.2198C56.9188 45.2198 57.1926 45.3467 57.4097 45.5938C57.7671 46.0079 57.8706 46.6458 57.8272 46.9464C57.2093 51.3615 54.3205 56.1874 50.0924 59.8511C46.5523 62.9203 40.4807 66.5773 31.6505 66.5773L31.6538 66.5773Z" fill="#030303"/>
<path d="M273.663 66.8268C264.005 66.8268 262.562 59.6064 262.562 55.2981L262.562 37.1234C262.562 34.5652 262.195 31.1653 259.008 31.1653C256.707 31.1653 255.104 33.1825 254.243 34.2646C254.153 34.3782 254.069 34.4817 253.999 34.5685L253.829 34.7756L254.273 35.1863C256.287 37.0466 259.042 39.5914 259.042 47.0924C259.042 56.6607 251.778 66.8268 238.319 66.8268C224.86 66.8268 216.454 59.4127 216.454 48.3749C216.454 45.3291 216.497 42.8644 216.537 40.6902C216.567 38.9235 216.597 37.257 216.597 35.5938C216.597 31.7364 214.487 30.12 213.091 29.0479C212.353 28.4835 211.772 28.036 211.772 27.5117C211.772 25.0403 215.803 18.9921 223.274 18.9921C233.026 18.9921 234.341 25.952 234.341 32.765L234.341 33.1892L234.732 33.0289C237.14 32.037 239.935 31.5126 242.818 31.5126C244.905 31.5126 246.955 31.7999 248.592 32.3209L248.842 32.401L248.943 32.1572C252.226 24.0751 259.7 18.8518 267.982 18.8518C276.782 18.8518 279.908 25.6581 279.908 31.4859L279.908 49.2299C279.908 54.1326 281.962 55.8792 283.462 57.155C283.949 57.5725 284.374 57.9298 284.641 58.3272C284.788 58.561 284.751 59.229 284.15 60.3244C282.767 62.8392 278.699 66.8301 273.663 66.8301L273.663 66.8268ZM236.245 38.5695C235.677 38.5695 235.069 38.6229 234.438 38.7265L234.191 38.7665L234.201 39.017C234.291 41.1912 234.305 43.2618 234.318 45.0919C234.368 52.1989 234.398 56.8945 238.603 56.8945C241.659 56.8945 243.288 51.8616 243.288 48.2313C243.288 41.9125 240.854 38.5728 236.248 38.5728L236.245 38.5695Z" fill="#030303"/>
<path d="M310.864 66.5695C294.473 66.5695 287.139 54.8638 287.139 43.2649C287.139 35.4366 289.79 29.0511 294.813 24.7929C299.402 20.9022 305.781 18.8449 313.262 18.8449C329.313 18.8449 333.554 28.7806 333.554 34.0373C333.554 44.1299 322.783 47.7101 313.559 47.7101C310.42 47.7101 307.471 47.2959 305.253 46.5445L304.766 46.3809L304.886 46.8818C306.612 54.1156 313.896 55.1944 318.081 55.1944C323.588 55.1944 327.028 53.3308 329.302 52.0985C330.418 51.494 331.3 51.0164 331.964 51.0164C332.185 51.0164 332.378 51.0698 332.555 51.1767C332.859 51.3604 333.016 52.1285 332.682 53.4277C331.791 56.8976 326.374 66.0151 312.203 66.5461C311.746 66.5628 311.308 66.5728 310.864 66.5728L310.864 66.5695ZM311.976 27.7953C306.425 27.7953 304.455 33.9104 304.455 39.1471L304.455 39.4075L304.716 39.4276C305.32 39.4777 305.914 39.5044 306.486 39.5044C309.708 39.5044 312.41 38.6962 314.297 37.1633C315.904 35.8608 316.825 34.0874 316.825 32.3006C316.825 29.6456 314.832 27.792 311.976 27.792L311.976 27.7953Z" fill="#030303"/>
</svg>
