<svg width="189" height="60" viewBox="0 0 189 60" fill="none" xmlns="http://www.w3.org/2000/svg">
<path d="M8.16211 53.3379L12.4805 48.5977H13.6172L10.4414 52.0781L13.9219 57H12.8379L9.83789 52.7402L8.16211 54.5391V57H7.25977V48.5977H8.16211V53.3379ZM16.166 50.3203C15.5059 50.9883 15.1758 51.8145 15.1758 52.7988C15.1758 53.7832 15.5059 54.6094 16.166 55.2773C16.8262 55.9453 17.6367 56.2793 18.5977 56.2793C19.5586 56.2793 20.3691 55.9453 21.0293 55.2773C21.6895 54.6094 22.0195 53.7832 22.0195 52.7988C22.0195 51.8145 21.6895 50.9883 21.0293 50.3203C20.3691 49.6523 19.5586 49.3184 18.5977 49.3184C17.6367 49.3184 16.8262 49.6523 16.166 50.3203ZM21.6562 49.7402C22.4961 50.5801 22.916 51.5996 22.916 52.7988C22.916 53.998 22.4961 55.0176 21.6562 55.8574C20.8164 56.6973 19.7969 57.1172 18.5977 57.1172C17.3984 57.1172 16.3789 56.6973 15.5391 55.8574C14.6992 55.0176 14.2793 53.998 14.2793 52.7988C14.2793 51.5996 14.6992 50.5801 15.5391 49.7402C16.3789 48.9004 17.3984 48.4805 18.5977 48.4805C19.7969 48.4805 20.8164 48.9004 21.6562 49.7402ZM24.8965 48.5977H28.0781C28.8555 48.5977 29.5 48.8496 30.0117 49.3535C30.5234 49.8574 30.7793 50.4863 30.7793 51.2402C30.7793 51.9902 30.5215 52.6191 30.0059 53.127C29.4941 53.6309 28.8516 53.8828 28.0781 53.8828H25.7988V57H24.8965V48.5977ZM28.0781 49.4414H25.7988V53.0391H28.0781C28.6211 53.0391 29.0566 52.875 29.3848 52.5469C29.7129 52.2188 29.877 51.7832 29.877 51.2402C29.877 50.6973 29.7129 50.2617 29.3848 49.9336C29.0566 49.6055 28.6211 49.4414 28.0781 49.4414ZM34.0488 50.3203C33.3887 50.9883 33.0586 51.8145 33.0586 52.7988C33.0586 53.7832 33.3887 54.6094 34.0488 55.2773C34.709 55.9453 35.5195 56.2793 36.4805 56.2793C37.4414 56.2793 38.252 55.9453 38.9121 55.2773C39.5723 54.6094 39.9023 53.7832 39.9023 52.7988C39.9023 51.8145 39.5723 50.9883 38.9121 50.3203C38.252 49.6523 37.4414 49.3184 36.4805 49.3184C35.5195 49.3184 34.709 49.6523 34.0488 50.3203ZM39.5391 49.7402C40.3789 50.5801 40.7988 51.5996 40.7988 52.7988C40.7988 53.998 40.3789 55.0176 39.5391 55.8574C38.6992 56.6973 37.6797 57.1172 36.4805 57.1172C35.2812 57.1172 34.2617 56.6973 33.4219 55.8574C32.582 55.0176 32.1621 53.998 32.1621 52.7988C32.1621 51.5996 32.582 50.5801 33.4219 49.7402C34.2617 48.9004 35.2812 48.4805 36.4805 48.4805C37.6797 48.4805 38.6992 48.9004 39.5391 49.7402ZM41.2793 48.5977H47.4609V49.4414H44.8184V57H43.9219V49.4414H41.2793V48.5977ZM49.8574 53.3379L54.1758 48.5977H55.3125L52.1367 52.0781L55.6172 57H54.5332L51.5332 52.7402L49.8574 54.5391V57H48.9551V48.5977H49.8574V53.3379ZM57.8613 50.3203C57.2012 50.9883 56.8711 51.8145 56.8711 52.7988C56.8711 53.7832 57.2012 54.6094 57.8613 55.2773C58.5215 55.9453 59.332 56.2793 60.293 56.2793C61.2539 56.2793 62.0645 55.9453 62.7246 55.2773C63.3848 54.6094 63.7148 53.7832 63.7148 52.7988C63.7148 51.8145 63.3848 50.9883 62.7246 50.3203C62.0645 49.6523 61.2539 49.3184 60.293 49.3184C59.332 49.3184 58.5215 49.6523 57.8613 50.3203ZM63.3516 49.7402C64.1914 50.5801 64.6113 51.5996 64.6113 52.7988C64.6113 53.998 64.1914 55.0176 63.3516 55.8574C62.5117 56.6973 61.4922 57.1172 60.293 57.1172C59.0938 57.1172 58.0742 56.6973 57.2344 55.8574C56.3945 55.0176 55.9746 53.998 55.9746 52.7988C55.9746 51.5996 56.3945 50.5801 57.2344 49.7402C58.0742 48.9004 59.0938 48.4805 60.293 48.4805C61.4922 48.4805 62.5117 48.9004 63.3516 49.7402ZM73.0723 48.5977V57H72.1699V49.4414H67.4941V57H66.5918V48.5977H73.0723ZM81.8906 48.5977V57H80.9941V49.4414H77.3906V51.1172C77.3906 52.3555 77.3379 53.3828 77.2324 54.1992C77.1309 55.0117 76.9707 55.627 76.752 56.0449C76.5371 56.459 76.2969 56.7422 76.0312 56.8945C75.7695 57.043 75.4434 57.1172 75.0527 57.1172C74.9238 57.1172 74.7949 57.1074 74.666 57.0879C74.541 57.0684 74.4453 57.0469 74.3789 57.0234L74.2734 57V56.0977C74.5117 56.1758 74.7305 56.2168 74.9297 56.2207C75.1758 56.2207 75.3848 56.1602 75.5566 56.0391C75.7324 55.918 75.8965 55.6855 76.0488 55.3418C76.2012 54.998 76.3125 54.4766 76.3828 53.7773C76.457 53.0781 76.4941 52.1914 76.4941 51.1172V48.5977H81.8906ZM85.7637 50.3203C85.1035 50.9883 84.7734 51.8145 84.7734 52.7988C84.7734 53.7832 85.1035 54.6094 85.7637 55.2773C86.4238 55.9453 87.2344 56.2793 88.1953 56.2793C89.1562 56.2793 89.9668 55.9453 90.627 55.2773C91.2871 54.6094 91.6172 53.7832 91.6172 52.7988C91.6172 51.8145 91.2871 50.9883 90.627 50.3203C89.9668 49.6523 89.1562 49.3184 88.1953 49.3184C87.2344 49.3184 86.4238 49.6523 85.7637 50.3203ZM91.2539 49.7402C92.0938 50.5801 92.5137 51.5996 92.5137 52.7988C92.5137 53.998 92.0938 55.0176 91.2539 55.8574C90.4141 56.6973 89.3945 57.1172 88.1953 57.1172C86.9961 57.1172 85.9766 56.6973 85.1367 55.8574C84.2969 55.0176 83.877 53.998 83.877 52.7988C83.877 51.5996 84.2969 50.5801 85.1367 49.7402C85.9766 48.9004 86.9961 48.4805 88.1953 48.4805C89.3945 48.4805 90.4141 48.9004 91.2539 49.7402ZM92.9883 56.1621H93.4688C93.5078 56.1309 93.5605 56.0781 93.627 56.0039C93.6973 55.9258 93.8184 55.7441 93.9902 55.459C94.1621 55.1738 94.3145 54.8555 94.4473 54.5039C94.5801 54.1523 94.6992 53.6758 94.8047 53.0742C94.9141 52.4688 94.9688 51.8164 94.9688 51.1172V48.5977H100.131V56.1621H101.15V58.7988H100.248V57H93.8906V58.7988H92.9883V56.1621ZM95.8711 51.1172C95.8711 51.7969 95.8203 52.4375 95.7188 53.0391C95.6172 53.6406 95.4961 54.123 95.3555 54.4863C95.2188 54.8496 95.0801 55.166 94.9395 55.4355C94.7988 55.7012 94.6758 55.8867 94.5703 55.9922L94.4297 56.1621H99.2285V49.4414H95.8711V51.1172ZM102.768 57V48.5977H103.67V52.3184H108.346V48.5977H109.248V57H108.346V53.1621H103.67V57H102.768ZM119.865 57H118.969V48.5977H119.865V57ZM114.826 57H111.768V48.5977H112.67V51.7207H114.826C115.604 51.7207 116.248 51.9727 116.76 52.4766C117.271 52.9805 117.527 53.6094 117.527 54.3633C117.527 55.1133 117.271 55.7402 116.76 56.2441C116.248 56.748 115.604 57 114.826 57ZM112.67 56.1621H114.826C115.369 56.1621 115.805 55.998 116.133 55.6699C116.461 55.3418 116.625 54.9062 116.625 54.3633C116.625 53.8164 116.461 53.3789 116.133 53.0508C115.809 52.7227 115.373 52.5586 114.826 52.5586H112.67V56.1621ZM126.973 47.0098C126.676 47.3105 126.287 47.4609 125.807 47.4609C125.326 47.4609 124.936 47.3105 124.635 47.0098C124.334 46.709 124.184 46.3184 124.184 45.8379H124.846C124.846 46.1113 124.938 46.3398 125.121 46.5234C125.305 46.707 125.531 46.7988 125.801 46.7988C126.074 46.7988 126.303 46.707 126.486 46.5234C126.674 46.3398 126.768 46.1113 126.768 45.8379H127.424C127.424 46.3184 127.273 46.709 126.973 47.0098ZM129.223 57H128.326V50.2207L123.164 57H122.385V48.5977H123.287V55.3828L128.443 48.5977H129.223V57ZM135.381 50.3203C134.721 50.9883 134.391 51.8145 134.391 52.7988C134.391 53.7832 134.721 54.6094 135.381 55.2773C136.041 55.9453 136.852 56.2793 137.812 56.2793C138.773 56.2793 139.584 55.9453 140.244 55.2773C140.904 54.6094 141.234 53.7832 141.234 52.7988C141.234 51.8145 140.904 50.9883 140.244 50.3203C139.584 49.6523 138.773 49.3184 137.812 49.3184C136.852 49.3184 136.041 49.6523 135.381 50.3203ZM140.871 49.7402C141.711 50.5801 142.131 51.5996 142.131 52.7988C142.131 53.998 141.711 55.0176 140.871 55.8574C140.031 56.6973 139.012 57.1172 137.812 57.1172C136.613 57.1172 135.594 56.6973 134.754 55.8574C133.914 55.0176 133.494 53.998 133.494 52.7988C133.494 51.5996 133.914 50.5801 134.754 49.7402C135.594 48.9004 136.613 48.4805 137.812 48.4805C139.012 48.4805 140.031 48.9004 140.871 49.7402ZM144.111 57V48.5977H149.332V49.4414H145.014V57H144.111ZM153.598 53.5195L155.877 48.5977H156.838L153.715 55.1426C153.371 55.8613 153.021 56.3711 152.666 56.6719C152.311 56.9688 151.84 57.1172 151.254 57.1172C151.125 57.1172 150.996 57.1074 150.867 57.0879C150.742 57.0684 150.648 57.0469 150.586 57.0234L150.475 57V56.1621C150.674 56.2402 150.914 56.2793 151.195 56.2793C151.57 56.2793 151.867 56.1934 152.086 56.0215C152.309 55.8496 152.531 55.5566 152.754 55.1426L153.117 54.4805C152.859 53.9922 152.371 53.0742 151.652 51.7266C150.934 50.3789 150.381 49.3359 149.994 48.5977H150.955L153.598 53.5195ZM158.279 48.5977H161.461C162.238 48.5977 162.883 48.8496 163.395 49.3535C163.906 49.8574 164.162 50.4863 164.162 51.2402C164.162 51.9902 163.904 52.6191 163.389 53.127C162.877 53.6309 162.234 53.8828 161.461 53.8828H159.182V57H158.279V48.5977ZM161.461 49.4414H159.182V53.0391H161.461C162.004 53.0391 162.439 52.875 162.768 52.5469C163.096 52.2188 163.26 51.7832 163.26 51.2402C163.26 50.6973 163.096 50.2617 162.768 49.9336C162.439 49.6055 162.004 49.4414 161.461 49.4414ZM166.986 56.1621H171.967V57H166.084V48.5977H171.844V49.4414H166.986V52.2012H170.883V53.0391H166.986V56.1621ZM173.76 57V48.5977H174.662V56.1621H179.221V48.5977H180.117V56.1621H181.201V58.7988H180.299V57H173.76Z" fill="#030303"/>
<path d="M99.2581 1.25062C99.7861 1.15979 100.802 1.08033 101.777 1.08033C103.062 1.08033 103.779 1.21658 104.385 1.55342C104.964 1.84106 105.372 2.33875 105.372 3.04461C105.372 3.75046 104.859 4.42225 103.881 4.72124L103.881 4.75529C104.769 4.94074 105.694 5.56523 105.694 6.67415C105.694 7.39136 105.319 7.93448 104.793 8.31674C104.14 8.77847 103.075 9.02069 101.378 9.02069C100.414 9.02069 99.6952 8.96202 99.2562 8.9185L99.2562 1.25252L99.2581 1.25062ZM100.903 4.31438L101.856 4.31438C103.075 4.31438 103.703 3.86209 103.703 3.2168C103.703 2.45228 102.997 2.16276 101.943 2.16276C101.391 2.16276 101.094 2.2025 100.903 2.23467L100.903 4.31627L100.903 4.31438ZM100.903 7.86256C101.135 7.90798 101.444 7.90798 101.866 7.90798C102.946 7.90798 103.947 7.60898 103.947 6.62684C103.947 5.72608 102.997 5.37789 101.815 5.37789L100.903 5.37789L100.903 7.86256Z" fill="#030303"/>
<path d="M110.648 1.14823L110.648 4.0814C110.648 5.26223 110.635 6.39387 110.557 7.44603L110.597 7.45737C111.11 6.54336 111.711 5.63124 112.357 4.69452L114.951 1.15012L116.658 1.15012L116.658 8.93909L115.116 8.93909L115.116 5.99079C115.116 4.88186 115.129 3.9092 115.245 2.87975L115.207 2.87028C114.743 3.78429 114.101 4.77589 113.471 5.65773L111.032 8.93909L109.102 8.93909L109.102 1.15012L110.646 1.15012L110.648 1.14823Z" fill="#030303"/>
<path d="M122.007 2.35953L119.231 2.35953L119.231 1.14652L126.464 1.14652L126.464 2.35953L123.663 2.35953L123.663 8.93738L122.007 8.93738L122.007 2.35953Z" fill="#030303"/>
<path d="M130.232 6.67204L129.398 8.93909L127.666 8.93909L130.722 1.15012L132.881 1.15012L136.028 8.93909L134.216 8.93909L133.317 6.67204L130.232 6.67204ZM133.023 5.56311L132.238 3.59694C132.047 3.13331 131.89 2.66211 131.75 2.24579L131.727 2.24579C131.585 2.67157 131.456 3.13331 131.288 3.59694L130.518 5.56311L133.025 5.56311L133.023 5.56311Z" fill="#030303"/>
<path d="M146.961 5.70144C146.91 4.64928 146.859 3.38897 146.859 2.25544L146.82 2.25544C146.5 3.24894 146.087 4.33705 145.665 5.40245L144.263 8.84655L142.951 8.84655L141.71 5.43463C141.335 4.37112 141 3.27165 140.745 2.25544L140.72 2.25544C140.681 3.31706 140.63 4.64928 140.552 5.74685L140.348 8.93738L138.779 8.93738L139.362 1.14842L141.65 1.14842L142.868 4.26703C143.203 5.15455 143.497 6.11776 143.718 6.98257L143.754 6.98257C144.011 6.14047 144.346 5.14319 144.717 4.25567L146.04 1.14842L148.292 1.14842L148.778 8.93738L147.132 8.93738L146.967 5.70144L146.961 5.70144Z" fill="#030303"/>
<path d="M153.97 1.14823L153.97 4.0814C153.97 5.26223 153.955 6.39387 153.879 7.44603L153.917 7.45737C154.43 6.54336 155.033 5.63124 155.675 4.69452L158.273 1.15012L159.978 1.15012L159.978 8.93909L158.438 8.93909L158.438 5.99079C158.438 4.88186 158.451 3.9092 158.566 2.87975L158.529 2.87028C158.065 3.78429 157.423 4.77589 156.791 5.65773L154.352 8.93909L152.424 8.93909L152.424 1.15012L153.97 1.15012L153.97 1.14823Z" fill="#030303"/>
<path d="M165.919 1.14842L165.919 4.23296L170.107 4.23296L170.107 1.14842L171.763 1.14842L171.763 8.93738L170.107 8.93738L170.107 5.50465L165.919 5.50465L165.919 8.93738L164.264 8.93738L164.264 1.14842L165.919 1.14842Z" fill="#030303"/>
<path d="M177.488 1.14839L177.488 3.88664C177.757 3.84879 178.258 3.81662 178.604 3.81662C180.468 3.81662 182.255 4.52059 182.255 6.37132C182.255 7.08853 181.982 7.6184 181.575 8.01011C180.713 8.79734 179.223 9.01874 177.965 9.01874C177.002 9.01874 176.283 8.96007 175.844 8.91654L175.844 1.14839L177.488 1.14839ZM177.475 7.84925C177.694 7.89466 178.003 7.90792 178.387 7.90792C179.465 7.90792 180.52 7.45754 180.52 6.39403C180.52 5.33052 179.35 4.95015 178.374 4.95015C177.989 4.95015 177.668 4.98611 177.475 4.99746L177.475 7.85114L177.475 7.84925ZM184.838 8.93736L183.178 8.93736L183.178 1.14839L184.838 1.14839L184.838 8.93736Z" fill="#030303"/>
<path d="M114.099 37.7055C109.621 37.7055 107.582 34.621 107.582 31.7559C107.582 30.1209 107.576 27.6608 107.568 25.443C107.563 23.6225 107.559 21.9648 107.559 21.0603C107.559 19.166 106.403 17.1412 103.159 17.1412L102.987 17.1412L102.998 17.3115C103.649 27.6968 102.854 33.2679 100.341 35.9437C99.2267 37.1302 97.7809 37.7055 95.9188 37.7055C92.3271 37.7055 90.4897 35.3703 90.009 33.3701L89.9333 33.056L89.7289 33.3039C88.1223 35.253 85.1797 37.5976 80.2803 37.6866C80.1498 37.6885 80.0211 37.6904 79.8924 37.6904C70.2167 37.6904 65.8851 31.0633 65.8851 24.4968C65.8851 20.063 67.3876 16.4448 70.2319 14.032C72.832 11.8274 76.4464 10.6617 80.6853 10.6617C84.9242 10.6617 87.916 11.765 89.9598 13.9393C92.0281 16.1401 92.189 18.5737 92.189 19.2682C92.189 24.9869 86.0861 27.0155 80.8575 27.0155C79.0787 27.0155 77.4077 26.7809 76.1512 26.357L75.8749 26.2643L75.943 26.5481C76.9214 30.6451 81.0467 31.2563 83.4198 31.2563C86.6519 31.2563 88.6711 29.7462 90.0071 28.7471C90.6467 28.2683 91.1539 27.8898 91.5172 27.8898C91.5967 27.8898 91.6686 27.9087 91.7367 27.9447L91.7462 27.9542L91.7859 27.9731C91.7973 27.9769 91.8048 27.9806 91.8143 27.9844C92.3896 28.2891 92.9554 28.4443 93.4947 28.4443C94.3747 28.4443 95.1827 28.045 95.898 27.2578C97.8888 25.0683 98.6382 20.4755 98.3316 17.2642L98.3184 17.1185L98.1727 17.1185C97.9172 17.1185 97.6125 17.1393 97.2908 17.1601C96.9218 17.1847 96.5395 17.2112 96.1762 17.2112C94.8818 17.2112 94.7153 16.8592 94.7153 16.5527C94.7153 15.3661 96.2614 13.8485 98.7479 12.5938C101.463 11.2237 104.743 10.4403 107.744 10.4403C114.006 10.4403 117.744 13.5968 117.744 18.884C117.744 20.7158 117.736 22.858 117.728 24.7069C117.723 26.1072 117.719 27.3372 117.719 28.1358C117.719 30.6527 118.693 31.3812 119.477 31.966C119.825 32.2271 120.126 32.4523 120.31 32.7948C120.448 33.1203 120.228 33.8129 119.744 34.5472C118.782 36.0043 116.729 37.7055 114.099 37.7055ZM79.9795 15.7484C76.8306 15.7484 75.7141 19.2133 75.7141 22.1805L75.7141 22.3281L75.8617 22.3395C76.2042 22.3679 76.541 22.383 76.8665 22.383C78.6945 22.383 80.2255 21.9251 81.2946 21.0565C82.2049 20.3184 82.7272 19.3136 82.7272 18.3012C82.7272 16.7968 81.5974 15.7465 79.9795 15.7465L79.9795 15.7484Z" fill="#030303"/>
<path d="M57.987 37.9473C54.3045 37.9473 51.6325 35.5119 51.6325 32.1548L51.6325 20.4108C51.6325 17.6101 50.3721 17.1919 49.6209 17.1919C48.1448 17.1919 46.084 19.211 46.084 22.5018C46.084 23.2361 46.0632 26.6064 46.0424 29.8688C46.0235 33.0083 46.0027 35.9812 46.0027 36.81C45.3044 37.1885 43.5577 37.4137 41.2812 37.4137C39.0047 37.4137 36.8928 37.1961 35.8728 36.8668C35.8728 34.6092 35.9277 29.7685 35.9712 25.8665C36.0034 22.9844 36.0299 20.494 36.0299 19.6898C36.0299 17.3792 35.0307 16.556 34.3022 15.9561C33.9048 15.6307 33.619 15.3941 33.619 15.0232C33.619 13.7004 36.2797 10.438 40.2934 10.438C44.3071 10.438 45.927 13.9408 45.927 16.3081L46.2392 16.3649C47.3519 13.4204 50.6409 10.438 54.7757 10.438C59.323 10.438 61.7755 14.0846 61.7755 17.5155C61.7755 18.49 61.7547 20.7628 61.7339 22.9617C61.715 25.0944 61.6942 27.299 61.6942 28.2149C61.6942 30.9986 62.928 31.8407 63.7455 32.3989C64.1296 32.6601 64.3473 32.819 64.3473 33.0404C64.3473 34.4976 61.8815 37.9473 57.9965 37.9473L57.987 37.9473Z" fill="#030303"/>
<path d="M17.9359 37.7243C12.4896 37.7243 7.90063 35.8792 4.66279 32.3878C1.65582 29.1462 1.66058e-07 24.614 2.29217e-07 19.6276C3.03665e-07 13.7499 1.85073 8.76162 5.35161 5.20208C8.65001 1.84691 13.2674 -3.41833e-05 18.3541 -3.41262e-05L18.4052 -3.41256e-05C23.5827 -3.40675e-05 26.811 1.6804 28.6069 3.08832C30.6904 4.72332 32.0548 6.97333 32.2554 9.10414C32.4125 10.7751 31.8958 12.359 30.7964 13.5664C29.695 14.7756 28.1565 15.4417 26.461 15.4417C24.4077 15.4417 22.4226 14.8513 21.6316 14.0054C21.4046 13.7631 21.2986 13.519 21.3137 13.2825C21.3213 13.0914 21.3345 12.8794 21.3478 12.6505C21.4462 11.059 21.5957 8.65186 20.3373 7.28557C19.7393 6.63649 18.8783 6.29587 17.7807 6.27316C17.7466 6.27316 17.7125 6.27316 17.6766 6.27316C13.9448 6.27316 11.3391 10.6067 11.3391 16.8118C11.3391 22.2731 14.5845 28.1508 21.713 28.1508C25.458 28.1508 27.6077 27.4128 31.6196 25.7267C31.7823 25.6567 31.9318 25.6226 32.0643 25.6226C32.2516 25.6226 32.4068 25.6945 32.5298 25.8346C32.7323 26.0692 32.7909 26.4307 32.7663 26.601C32.4162 29.1027 30.7793 31.8372 28.3836 33.9131C26.3777 35.6522 22.9374 37.7243 17.934 37.7243L17.9359 37.7243Z" fill="#030303"/>
<path d="M155.064 37.8658C149.592 37.8658 148.774 33.7745 148.774 31.3334L148.774 21.0351C148.774 19.5855 148.566 17.6591 146.761 17.6591C145.457 17.6591 144.548 18.8021 144.06 19.4152C144.009 19.4796 143.962 19.5382 143.922 19.5874L143.826 19.7047L144.077 19.9375C145.218 20.9916 146.78 22.4335 146.78 26.6838C146.78 32.1054 142.664 37.8658 135.037 37.8658C127.411 37.8658 122.648 33.6648 122.648 27.4105C122.648 25.6846 122.673 24.2881 122.695 23.0561C122.712 22.0551 122.729 21.1108 122.729 20.1684C122.729 17.9827 121.533 17.0668 120.742 16.4593C120.324 16.1395 119.995 15.886 119.995 15.5889C119.995 14.1885 122.279 10.7614 126.512 10.7614C132.038 10.7614 132.784 14.7051 132.784 18.5655L132.784 18.8059L133.005 18.715C134.369 18.153 135.953 17.8559 137.586 17.8559C138.769 17.8559 139.931 18.0187 140.858 18.3139L141 18.3593L141.057 18.2211C142.917 13.6416 147.152 10.682 151.845 10.682C156.832 10.682 158.603 14.5386 158.603 17.8408L158.603 27.8949C158.603 30.6729 159.767 31.6626 160.617 32.3855C160.893 32.622 161.133 32.8245 161.285 33.0497C161.368 33.1822 161.347 33.5607 161.006 34.1814C160.223 35.6063 157.918 37.8677 155.064 37.8677L155.064 37.8658ZM133.862 21.8545C133.541 21.8545 133.196 21.8848 132.838 21.9434L132.698 21.9661L132.704 22.1081C132.755 23.34 132.763 24.5133 132.77 25.5503C132.799 29.5772 132.816 32.2379 135.198 32.2379C136.93 32.2379 137.853 29.3861 137.853 27.3291C137.853 23.7487 136.474 21.8564 133.864 21.8564L133.862 21.8545Z" fill="#030303"/>
<path d="M176.143 37.72C166.856 37.72 162.7 31.0872 162.7 24.515C162.7 20.0793 164.203 16.4611 167.049 14.0483C169.649 11.8437 173.263 10.6781 177.502 10.6781C186.597 10.6781 189 16.3078 189 19.2864C189 25.0052 182.897 27.0338 177.67 27.0338C175.892 27.0338 174.221 26.7991 172.964 26.3733L172.688 26.2806L172.756 26.5645C173.734 30.6633 177.862 31.2746 180.233 31.2746C183.353 31.2746 185.302 30.2186 186.591 29.5203C187.223 29.1778 187.723 28.9072 188.099 28.9072C188.224 28.9072 188.334 28.9375 188.434 28.998C188.606 29.1021 188.695 29.5374 188.506 30.2735C188.001 32.2397 184.931 37.4058 176.902 37.7067C176.643 37.7162 176.395 37.7219 176.143 37.7219L176.143 37.72ZM176.773 15.7496C173.628 15.7496 172.512 19.2145 172.512 22.1818L172.512 22.3293L172.659 22.3407C173.002 22.3691 173.339 22.3842 173.662 22.3842C175.489 22.3842 177.02 21.9263 178.089 21.0577C178.999 20.3197 179.521 19.3148 179.521 18.3024C179.521 16.798 178.391 15.7477 176.773 15.7477L176.773 15.7496Z" fill="#030303"/>
</svg>
